<svg width="1006" height="904" viewBox="0 0 1006 904" fill="none" xmlns="http://www.w3.org/2000/svg">
<g clip-path="url(#clip0_304_14)">
<path d="M869.591 188.017L633.789 586.005C616.279 615.56 589.749 638.136 560.038 648.767C530.326 659.398 499.866 657.213 475.358 642.692C450.85 628.171 434.302 602.505 429.354 571.339C424.406 540.173 431.464 506.06 448.975 476.505C466.486 446.95 493.015 424.374 522.727 413.744C552.438 403.113 582.899 405.298 607.407 419.818C621.664 428.266 632.865 440.064 640.596 454.108L751.329 267.213L447.127 178.602L279.236 461.969C261.725 491.524 235.196 514.1 205.484 524.731C175.772 535.362 145.312 533.177 120.804 518.656C96.2961 504.136 79.748 478.469 74.8003 447.303C69.8525 416.137 76.9104 382.024 94.4212 352.47C111.932 322.915 138.461 300.339 168.173 289.708C197.885 279.077 228.345 281.262 252.853 295.783C267.11 304.23 278.312 316.028 286.042 330.072L443.369 64.5343L869.591 188.017Z" fill="#2B1515"/>
</g>
<defs>
<clipPath id="clip0_304_14">
<rect width="736.518" height="888.189" fill="white" transform="translate(371.74 -236) rotate(30.6461)"/>
</clipPath>
</defs>
</svg>
