<svg width="689" height="869" viewBox="0 0 689 869" fill="none" xmlns="http://www.w3.org/2000/svg">
<g clip-path="url(#clip0_304_14)">
<path d="M552.591 153.017L316.789 551.005C299.279 580.56 272.749 603.136 243.038 613.767C213.326 624.398 182.866 622.213 158.358 607.692C133.85 593.171 117.302 567.505 112.354 536.339C107.406 505.173 114.464 471.06 131.975 441.505C149.486 411.95 176.015 389.374 205.727 378.744C235.438 368.113 265.899 370.298 290.407 384.818C304.664 393.266 315.865 405.064 323.596 419.108L434.329 232.213L130.127 143.602L-37.7641 426.969C-55.2749 456.524 -81.8043 479.1 -111.516 489.731C-141.228 500.362 -171.688 498.177 -196.196 483.656C-220.704 469.136 -237.252 443.469 -242.2 412.303C-247.147 381.137 -240.09 347.024 -222.579 317.47C-205.068 287.915 -178.539 265.339 -148.827 254.708C-119.115 244.077 -88.6549 246.262 -64.1469 260.783C-49.8898 269.23 -38.6884 281.028 -30.9576 295.072L126.369 29.5343L552.591 153.017Z" fill="#2B1515"/>
</g>
<defs>
<clipPath id="clip0_304_14">
<rect width="736.518" height="888.189" fill="white" transform="translate(54.7396 -271) rotate(30.6461)"/>
</clipPath>
</defs>
</svg>
