<svg width="493" height="761" viewBox="0 0 493 761" fill="none" xmlns="http://www.w3.org/2000/svg">
<path d="M324.484 445.358L289.397 292.948L379.582 170.851C412.513 127.046 407.541 70.4149 369.121 34.3235C338.223 5.21251 291.64 -5.61435 247.214 4.61292C236.491 7.08157 224.537 11.2092 215.436 16.0555C163.195 41.3796 135.943 93.5066 147.171 142.278L179.651 283.365L51.0907 458.316C-16.7327 551.422 -16.9018 667.47 51.7206 753.008C110.086 826.693 209.005 863.988 311.477 855.988L317.592 882.55C320.198 893.872 310.86 907.027 297.073 910.201L220.478 927.834L240.527 1014.93L317.122 997.292C386.058 981.422 433.653 919.568 419.719 859.039L414.706 837.267C518.365 813.403 607.883 704.757 579.513 581.523C556.456 481.368 438.866 419.025 324.484 445.358ZM249.298 118.767C246.992 108.751 250.805 99.6198 260.927 94.5384C271.559 89.3395 284.206 90.5548 291.828 97.9708C299.96 105.269 300.424 116.626 293.858 125.474L261.628 172.327L249.298 118.767ZM227.369 490.641C184.253 529.913 158.004 586.395 154.953 633.867L260.25 633.47L290.826 766.284C230.117 766.504 172.365 742.2 136.937 698.083C92.1734 641.442 91.8726 565.395 136.815 503.693L207.32 403.55L227.369 490.641ZM394.657 750.176L343.932 529.836C403.676 516.082 466.277 552.109 478.407 604.799C495.95 681.003 441.125 739.478 394.657 750.176Z" fill="#2B1515"/>
</svg>
